<svg xmlns="http://www.w3.org/2000/svg" xmlns:xlink="http://www.w3.org/1999/xlink" width="317.825" height="237.874" viewBox="0 0 317.825 237.874">
  <defs>
    <linearGradient id="linear-gradient" x1="0.5" x2="0.5" y2="1" gradientUnits="objectBoundingBox">
      <stop offset="0" stop-color="#9185ff"/>
      <stop offset="1" stop-color="#5441ff"/>
    </linearGradient>
  </defs>
  <path id="云" d="M178.951,216.992c7.3,2.378,15.514-.256,19.268-6.182,19.427-29.616,59.424-44.2,97.447-35.531s64.555,38.42,64.641,72.485c0,41.468-38.8,75.085-86.663,75.085H129.207c-42.252.023-78.365-26.357-85.48-62.442s16.843-71.355,56.708-83.486c-2.562-44.771,34.3-83.994,85.42-90.894S285.861,106.779,299.138,150.1c-49.668-9.726-100.831,9.85-125.993,48.2-.087.125-.621,1.1-1.6,2.916a10.183,10.183,0,0,0-.277,9.289,12.692,12.692,0,0,0,7.687,6.479Z" transform="translate(-42.482 -84.975)" fill="url(#linear-gradient)"/>
</svg>
